<svg xmlns="http://www.w3.org/2000/svg" width="600" height="320" viewBox="0 0 600 320" role="img" aria-labelledby="title desc">
<title id="title">Repository language mix for jasilmeledath</title>
<desc id="desc">Language mix from 20 public owned non-fork repositories. EJS: 32.46% (1,670,713 bytes); JavaScript: 27.63% (1,422,228 bytes); TypeScript: 9.73% (500,618 bytes); HTML: 8.29% (426,557 bytes); Java: 6.75% (347,475 bytes); Other: 15.15% (780,030 bytes). Percentages use all 5,147,621 source bytes, not a subset. Updated 2026-10-08T09:46:32Z.</desc>
<rect x="0.5" y="0.5" width="599" height="319" rx="22" fill="#f7f5f0" stroke="#ddd9d0"/>
<g font-family="-apple-system, BlinkMacSystemFont, Segoe UI, Arial, sans-serif">
<text x="28" y="40" fill="#137b66" font-size="18" font-weight="700" text-anchor="start">LANGUAGE MIX</text>
<text x="28" y="65" fill="#57645f" font-size="14" font-weight="400" text-anchor="start">Across 20 public, owned repos · Forks excluded</text>
<defs><clipPath id="bar"><rect x="28" y="87" width="544" height="18" rx="9"/></clipPath></defs>
<g clip-path="url(#bar)">
<rect x="28.0000" y="87" width="176.5608" height="18" fill="#bd9362"/>
<rect x="204.5608" y="87" width="150.3009" height="18" fill="#cbb747"/>
<rect x="354.8617" y="87" width="52.9053" height="18" fill="#3178c6"/>
<rect x="407.7669" y="87" width="45.0785" height="18" fill="#e36a46"/>
<rect x="452.8454" y="87" width="36.7211" height="18" fill="#bb8447"/>
<rect x="489.5665" y="87" width="82.4335" height="18" fill="#82968a"/>
</g>
<circle cx="33" cy="136" r="5" fill="#bd9362"/>
<text x="46" y="141" fill="#17201f" font-size="16" font-weight="600" text-anchor="start">EJS</text>
<text x="280" y="141" fill="#57645f" font-size="15" font-weight="400" text-anchor="end">32.5%</text>
<circle cx="315" cy="136" r="5" fill="#cbb747"/>
<text x="328" y="141" fill="#17201f" font-size="16" font-weight="600" text-anchor="start">JavaScript</text>
<text x="562" y="141" fill="#57645f" font-size="15" font-weight="400" text-anchor="end">27.6%</text>
<circle cx="33" cy="175" r="5" fill="#3178c6"/>
<text x="46" y="180" fill="#17201f" font-size="16" font-weight="600" text-anchor="start">TypeScript</text>
<text x="280" y="180" fill="#57645f" font-size="15" font-weight="400" text-anchor="end">9.7%</text>
<circle cx="315" cy="175" r="5" fill="#e36a46"/>
<text x="328" y="180" fill="#17201f" font-size="16" font-weight="600" text-anchor="start">HTML</text>
<text x="562" y="180" fill="#57645f" font-size="15" font-weight="400" text-anchor="end">8.3%</text>
<circle cx="33" cy="214" r="5" fill="#bb8447"/>
<text x="46" y="219" fill="#17201f" font-size="16" font-weight="600" text-anchor="start">Java</text>
<text x="280" y="219" fill="#57645f" font-size="15" font-weight="400" text-anchor="end">6.8%</text>
<circle cx="315" cy="214" r="5" fill="#82968a"/>
<text x="328" y="219" fill="#17201f" font-size="16" font-weight="600" text-anchor="start">Other</text>
<text x="562" y="219" fill="#57645f" font-size="15" font-weight="400" text-anchor="end">15.2%</text>
<path d="M28 245 H572" stroke="#ddd9d0"/>
<text x="28" y="273" fill="#57645f" font-size="16" font-weight="400" text-anchor="start">Source-byte share · Not proficiency</text>
<text x="28" y="300" fill="#57645f" font-size="14" font-weight="400" text-anchor="start">Updated 08 Oct 2026, 09:46 UTC</text>
</g>
</svg>
